<svg width="96" height="96" viewBox="0 0 96 96" fill="none" xmlns="http://www.w3.org/2000/svg">
  <circle cx="48" cy="48" r="48" fill="#E8D8CE"/>
  <path d="M22 43C22 28.0883 34.0883 16 49 16C63.9117 16 76 28.0883 76 43V51H22V43Z" fill="#30243A"/>
  <path d="M64.5 57.5C64.5 68.8218 57.0001 78 47.75 78C38.4999 78 31 68.8218 31 57.5C31 46.1782 38.4999 37 47.75 37C57.0001 37 64.5 46.1782 64.5 57.5Z" fill="#F7D2BF"/>
  <path d="M36 54.5C39.6862 49.3418 44.8187 46.7627 51.3977 46.7627C57.9767 46.7627 63.1774 49.3418 67 54.5V58.5768C67 69.5709 58.0457 78.5 47 78.5H46C34.9543 78.5 26 69.5709 26 58.5768V54.5C29.8857 50.5195 35.219 48.5293 42 48.5293C45.8743 48.5293 49.2287 49.1227 52.0632 50.3096C46.9636 51.2816 41.6092 52.6784 36 54.5Z" fill="#D56362"/>
  <path d="M36 51C37.692 40.117 43.1924 34.6755 52.5011 34.6755C61.8098 34.6755 68.6427 40.117 73 51C69.3224 46.7512 64.2912 44.6268 57.9063 44.6268C51.5214 44.6268 44.2193 46.7512 36 51Z" fill="#30243A"/>
  <ellipse cx="40.5" cy="57.5" rx="2.5" ry="2.75" fill="#2D242F"/>
  <ellipse cx="54.5" cy="57.5" rx="2.5" ry="2.75" fill="#2D242F"/>
  <path d="M43 67.2C44.7337 68.4 46.3778 69 47.9323 69C49.4869 69 51.1761 68.4 53 67.2" stroke="#B86A5C" stroke-width="1.8" stroke-linecap="round"/>
  <path d="M26 83C30.8829 73.6667 38.3838 69 48.5029 69C58.622 69 66.1211 73.6667 71 83" fill="#7D59FF"/>
</svg>
